<svg xmlns="http://www.w3.org/2000/svg" id="Layer_1" style="" viewBox="0 0 426.667 426.667" x="0px" y="0px" xmlns:xml="http://www.w3.org/XML/1998/namespace" xml:space="preserve" version="1.1">
<g>
	<path style="fill: #e86412;" d="M 197.918 309.218 c -17.173 0 -31.023 13.833 -31.023 31.023 c 0 17.084 13.85 30.959 31.023 30.959 c 17.101 0 31.031 -13.875 31.031 -30.959 C 228.949 323.051 215.019 309.218 197.918 309.218 Z" />
	<path style="fill: #e86412;" d="M 324.356 309.218 c -17.143 0 -31.019 13.833 -31.019 31.023 c 0 17.084 13.875 30.959 31.019 30.959 c 17.101 0 31.01 -13.875 31.01 -30.959 C 355.366 323.051 341.457 309.218 324.356 309.218 Z" />
	<polygon style="fill: #e86412;" points="349.675,171.213 172.548,171.213 179.618,194.487 342.66,194.487" />
	<polygon style="fill: #e86412;" points="328.585,240.96 335.616,217.728 186.684,217.728 193.741,240.96" />
	<polygon style="fill: #e86412;" points="155.2,113.707 165.457,148.002 380.442,148.002 345.391,264.081 176.977,264.081 113.783,55.467 0,55.467 0,89.502 88.269,89.502 151.607,298.355 370.65,298.355 426.667,113.707" />
</g>
<g>
</g>
<g>
</g>
<g>
</g>
<g>
</g>
<g>
</g>
<g>
</g>
<g>
</g>
<g>
</g>
<g>
</g>
<g>
</g>
<g>
</g>
<g>
</g>
<g>
</g>
<g>
</g>
<g>
</g>
</svg>